<svg xmlns="http://www.w3.org/2000/svg" style="display:none">
  <symbol id="icon-chart" viewBox="0 0 24 24" fill="none" stroke="currentColor" stroke-width="2" stroke-linecap="round" stroke-linejoin="round">
    <path d="M3 3v18h18"/><path d="M7 16l4-6 4 3 5-8"/>
  </symbol>
  <symbol id="icon-zap" viewBox="0 0 24 24" fill="none" stroke="currentColor" stroke-width="2" stroke-linecap="round" stroke-linejoin="round">
    <path d="M13 2 3 14h9l-1 8 10-12h-9l1-8z"/>
  </symbol>
  <symbol id="icon-message" viewBox="0 0 24 24" fill="none" stroke="currentColor" stroke-width="2" stroke-linecap="round" stroke-linejoin="round">
    <path d="M21 15a2 2 0 0 1-2 2H7l-4 4V5a2 2 0 0 1 2-2h14a2 2 0 0 1 2 2z"/>
  </symbol>
  <symbol id="icon-book" viewBox="0 0 24 24" fill="none" stroke="currentColor" stroke-width="2" stroke-linecap="round" stroke-linejoin="round">
    <path d="M4 19.5A2.5 2.5 0 0 1 6.5 17H20"/><path d="M6.5 2H20v20H6.5A2.5 2.5 0 0 1 4 19.5v-15A2.5 2.5 0 0 1 6.5 2z"/>
  </symbol>
  <symbol id="icon-palette" viewBox="0 0 24 24" fill="none" stroke="currentColor" stroke-width="2" stroke-linecap="round" stroke-linejoin="round">
    <circle cx="13.5" cy="6.5" r=".5" fill="currentColor"/><circle cx="17.5" cy="10.5" r=".5" fill="currentColor"/>
    <circle cx="8.5" cy="7.5" r=".5" fill="currentColor"/><circle cx="6.5" cy="12.5" r=".5" fill="currentColor"/>
    <path d="M12 2C6.5 2 2 6.5 2 12s4.5 10 10 10c.926 0 1.648-.746 1.648-1.688 0-.437-.18-.835-.437-1.125-.29-.289-.438-.652-.438-1.125a1.64 1.64 0 0 1 1.668-1.668h1.996c3.051 0 5.555-2.503 5.555-5.554C21.965 6.012 17.461 2 12 2z"/>
  </symbol>
  <symbol id="icon-globe" viewBox="0 0 24 24" fill="none" stroke="currentColor" stroke-width="2" stroke-linecap="round" stroke-linejoin="round">
    <circle cx="12" cy="12" r="10"/><path d="M12 2a14.5 14.5 0 0 0 0 20 14.5 14.5 0 0 0 0-20"/><path d="M2 12h20"/>
  </symbol>
  <symbol id="icon-linux" viewBox="0 0 24 24" fill="currentColor">
    <path d="M12.504 0c-.155 0-.315.008-.48.021-4.226.333-3.73 2.406-3.73 2.406-.867 1.52-1.28 3.82-.96 5.964.33 2.206 1.177 4.102 2.503 5.453 1.326 1.35 2.96 2.135 4.617 2.135.31 0 .62-.028.92-.083 1.87-.35 3.47-1.4 4.5-2.87 1.03-1.47 1.58-3.28 1.58-5.17 0-2.48-1.01-4.75-2.68-6.38C17.174 1.01 14.99 0 12.504 0zm-.02 2.17c2.01 0 3.64 1.63 3.64 3.64 0 2.01-1.63 3.64-3.64 3.64-2.01 0-3.64-1.63-3.64-3.64 0-2.01 1.63-3.64 3.64-3.64zM6.5 14.28c-1.38.12-2.62.58-3.57 1.28-.95.7-1.7 1.65-2.15 2.75-.45 1.1-.58 2.32-.35 3.5.23 1.18.78 2.28 1.58 3.15.8.87 1.85 1.48 3 1.75 1.15.27 2.35.2 3.45-.2 1.1-.4 2.08-1.15 2.8-2.15.72-1 1.15-2.2 1.25-3.45.1-1.25-.15-2.5-.7-3.6-.55-1.1-1.35-2.05-2.3-2.75-.95-.7-2.05-1.1-3.2-1.15-.38-.02-.76 0-1.13.05z"/>
  </symbol>
  <symbol id="icon-windows" viewBox="0 0 24 24" fill="currentColor">
    <path d="M3 5.5 10.5 4.2v7.6H3V5.5zm8.5 0L21 4v8.2h-9.5V5.5zM3 13.8h7.5v7.6L3 20.5V13.8zm9.5 0H21v8.2l-8.5-1.4V13.8z"/>
  </symbol>
  <symbol id="icon-github" viewBox="0 0 24 24" fill="currentColor">
    <path d="M12 .3a12 12 0 0 0-3.8 23.4c.6.1.8-.3.8-.6v-2.2c-3.3.7-4-1.6-4-1.6-.5-1.4-1.3-1.8-1.3-1.8-1.1-.7.1-.7.1-.7 1.2.1 1.8 1.2 1.8 1.2 1.1 1.8 2.8 1.3 3.5 1 .1-.8.4-1.3.8-1.6-2.7-.3-5.5-1.3-5.5-6a4.7 4.7 0 0 1 1.3-3.3 4.3 4.3 0 0 1 .1-3.3s1-.3 3.3 1.2a11.5 11.5 0 0 1 6 0c2.3-1.5 3.3-1.2 3.3-1.2.5 1.1.2 2.4.1 3.3a4.7 4.7 0 0 1 1.3 3.3c0 4.7-2.8 5.7-5.5 6 .4.4.8 1.1.8 2.2v3.3c0 .3.2.7.8.6A12 12 0 0 0 12 .3z"/>
  </symbol>
  <symbol id="icon-download" viewBox="0 0 24 24" fill="none" stroke="currentColor" stroke-width="2" stroke-linecap="round" stroke-linejoin="round">
    <path d="M21 15v4a2 2 0 0 1-2 2H5a2 2 0 0 1-2-2v-4"/><polyline points="7 10 12 15 17 10"/><line x1="12" y1="15" x2="12" y2="3"/>
  </symbol>
  <symbol id="icon-terminal" viewBox="0 0 24 24" fill="none" stroke="currentColor" stroke-width="2" stroke-linecap="round" stroke-linejoin="round">
    <polyline points="4 17 10 11 4 5"/><line x1="12" y1="19" x2="20" y2="19"/>
  </symbol>
</svg>
